<?xml version="1.0" encoding="UTF-8"?>
<!DOCTYPE svg PUBLIC "-//W3C//DTD SVG 1.1//EN" "http://www.w3.org/Graphics/SVG/1.1/DTD/svg11.dtd">
<svg xmlns="http://www.w3.org/2000/svg" version="1.1" width="512px" height="512px" style="shape-rendering:geometricPrecision; text-rendering:geometricPrecision; image-rendering:optimizeQuality; fill-rule:evenodd; clip-rule:evenodd" xmlns:xlink="http://www.w3.org/1999/xlink">
<g><path style="opacity:0.999" fill="#222222" d="M 40.5,-0.5 C 183.833,-0.5 327.167,-0.5 470.5,-0.5C 491.833,5.5 505.5,19.1667 511.5,40.5C 511.5,183.833 511.5,327.167 511.5,470.5C 505.5,491.833 491.833,505.5 470.5,511.5C 327.167,511.5 183.833,511.5 40.5,511.5C 19.1667,505.5 5.5,491.833 -0.5,470.5C -0.5,327.167 -0.5,183.833 -0.5,40.5C 5.5,19.1667 19.1667,5.5 40.5,-0.5 Z"/></g>
<g><path style="opacity:1" fill="#fdfdfd" d="M 299.5,362.5 C 298.527,364.948 298.194,367.615 298.5,370.5C 316.5,370.5 334.5,370.5 352.5,370.5C 356.41,370.263 360.077,371.096 363.5,373C 365.677,374.497 367.01,376.497 367.5,379C 364.261,389.716 360.428,400.216 356,410.5C 353.592,412.956 350.759,414.789 347.5,416C 307.496,415.511 267.496,414.844 227.5,414C 201.866,416.911 176.366,420.745 151,425.5C 148.648,425.695 146.648,425.028 145,423.5C 143.426,416.315 145.092,409.982 150,404.5C 172.673,381.755 200.173,370.422 232.5,370.5C 232.065,356.088 232.898,341.755 235,327.5C 246.293,265.538 262.459,204.871 283.5,145.5C 272.542,146.53 261.876,149.363 251.5,154C 239.354,159.571 227.687,165.904 216.5,173C 211.486,176.009 206.153,178.175 200.5,179.5C 198.076,179.852 196.576,178.852 196,176.5C 193.268,159.701 197.601,145.034 209,132.5C 215.972,125.19 223.805,119.023 232.5,114C 259.59,103.526 287.256,94.8592 315.5,88C 321.833,87.3333 328.167,87.3333 334.5,88C 345.032,98.0225 348.532,110.189 345,124.5C 334.097,177.917 322.764,231.25 311,284.5C 305.805,310.305 301.972,336.305 299.5,362.5 Z"/></g>
<g><path style="opacity:1" fill="#7a7a7a" d="M 299.5,362.5 C 299.5,364.833 299.5,367.167 299.5,369.5C 317.341,369.17 335.008,369.503 352.5,370.5C 334.5,370.5 316.5,370.5 298.5,370.5C 298.194,367.615 298.527,364.948 299.5,362.5 Z"/></g>
</svg>
